/* XPM */
static char *image_xpm[] = {
/* width height ncolors chars_per_pixel */
"32 32 15 1",
"  c #ff9900",
". c #cc9900",
"+ c #ffcc00",
"@ c #996600",
"# c #cc6600",
"$ c #663300",
"% c #330000",
"& c #333300",
"* c #666600",
"= c #ffcc99",
"- c #ffffff",
"; c #ffcc66",
"> c #ffffcc",
", c #cc9933",
"' c #ffcc33",
"-----------=;'' ..';=-----------",
"-------->;+...@.#.++++;>--------",
"-------;+.#...... +.. #+;-------",
"----->'+ ..+++ $$ +...@..'>-----",
"---->.+...+++ $%%$ ++++...'>----",
"--->... . ++.$%%%%$ ++++...,>---",
"---'...@@@@@$&$$$$&$@@@@@...'---",
"--;.@ @%&%%$...@#@..$%%%&@++ ;--",
"->...+@%%&#@$&@%@%$$.@&%%@ ...>-",
"-;..++@%&.$%*$@&.&**%@.&%@++..;-",
"-+..++@%.$%%$@@$ ..@$&@.%@++.. -",
"=..+++@@@%%$.@@$@$..#@$.@@++ . =",
"; .++.$.%%%$&.....$@%%$@.$ ++..;",
",@.+.$$@&%&#@@$.... ..&@#$$ +..,",
"'   $%@@%$#$$@@@.@$.@$%@*@%$  .,",
"...$%%#@#@%&@*@@&+.@$%$@&.%%$ .+",
" . $%%.$$%@@$%@.@@.@@$.@$.%%$.@ ",
"'++ $%@@%@@%%&#$&@#@$$@@$@%$.+ '",
"'..+ $@@@@@$&#$%$@@$$@$@@@$.+. '",
"; .++ $.$$&$ $%@.@@.@..$.$.++..;",
"= . ++@@$..#&%@$%@@.$.$.@@++ . =",
"- ..++@&.$&$%@$%$@$. ..@%@++ .+-",
"-; . +@%$.$$#@%$@%%$@@.$%@++..;-",
"->  .+@%&&#@$$@@&$$@.@$%&@+.. >-",
"--;.. @%%%%$@.#@#@.@$%%%%@.. ;--",
"---'...@@@@@$%&&%%%$@@@@@. .'---",
"--->'. .++++ $%%%%$.++++.+++>---",
"---->'... +++ $%%$.+++ ...'>----",
"----->'..   ++ $$.+++....'>-----",
"-------; ..... .......  ;-------",
"-------->; ....  ... +;>--------",
"-----------=;'' .'';=-----------",
};