/* XPM */
static char *image_xpm[] = {
/* width height ncolors chars_per_pixel */
"16 16 15 1",
"  c #cc9900",
". c #cc6600",
"+ c #ff9900",
"@ c #ffcc00",
"# c #333300",
"$ c #996600",
"% c #663300",
"& c #666600",
"* c #330000",
"= c #ffffff",
"- c #ffcc66",
"; c #ffffcc",
"> c #cc9933",
", c #ffcc33",
"' c #ff9933",
"====;->  ,-;====",
"===-   .    -===",
"==>+ @ ## @+ ,==",
"=- $%%$$$$%%$+-=",
"; +%%&%%%%$%%+ ;",
"- @$%#$%. %$$@ -",
">+ $*%$$ $$%$  >",
"  #$%%$$ $%%$#  ",
"+ #$%&#$$$%$$#  ",
",+ $%%&%$$$$$ +'",
"- @$$$%%%$.$$@ -",
"; +%%$&&%%$%%+ ;",
"=- $%%$%%%%%$ -=",
"==, +@ ## @+ ,==",
"===-  +  +  -===",
"====;-'+ '-;====",
};