/* XPM */
static char *image_xpm[] = {
/* width height ncolors chars_per_pixel */
"64 64 18 1",
"  c #ff9900",
". c #cc9900",
"+ c #ffcc00",
"@ c #996600",
"# c #cc6600",
"$ c #330000",
"% c #663300",
"& c #333300",
"* c #666600",
"= c #993300",
"- c #ffcc99",
"; c #ffffff",
"> c #ffcc66",
", c #ffffcc",
"' c #cc9933",
") c #ffcc33",
"! c #ff9933",
"~ c #ffcccc",
";;;;;;;;;;;;;;;;;;;;;;;;;~->))   .))>-~;;;;;;;;;;;;;;;;;;;;;;;;;",
";;;;;;;;;;;;;;;;;;;;;,-).++++ +. @+@+++ )-,;;;;;;;;;;;;;;;;;;;;;",
";;;;;;;;;;;;;;;;;;;-)++ @+ ..@+..@+@++++++ )-;;;;;;;;;;;;;;;;;;;",
";;;;;;;;;;;;;;;;;-++++ @@+.#@@+#.@ #+++++++++)-;;;;;;;;;;;;;;;;;",
";;;;;;;;;;;;;;;-)++#@.+@...@@@+@#. .++@+++++. +!-;;;;;;;;;;;;;;;",
";;;;;;;;;;;;;,>++++@ @ @# +++++@.++++ @+.@ .@@ + ),;;;;;;;;;;;;;",
";;;;;;;;;;;;-++++++.@#++++++++@$%.++++.@@#.%.@++.#)-;;;;;;;;;;;;",
";;;;;;;;;;;- +++ .@.++++ ++++@$$&&.+++ . +++.@+@.@++-;;;;;;;;;;;",
";;;;;;;;;;>++++++.@+++++++++@$$$$$%.++++++++++.@..+ +>;;;;;;;;;;",
";;;;;;;;;>..++ @ @.++++++++@$$$$$$$&.++++++++++.@+..+ >;;;;;;;;;",
";;;;;;;;>.+@.++.@..+++++++@$$$$$$$$$%.+++++++++++.@+ @+>;;;;;;;;",
";;;;;;;-+@.+@ +++++++++++@$$$$$$$$$$$&.+++++++++.@..@  .-;;;;;;;",
";;;;;;-+++##++          @$$$$$$$$$$$$$%.           . .@++-;;;;;;",
";;;;;,+ @. #+%&$&$&$&$&$$$$%%@@@@@@%%$$$&$&$&$&$&$%+.@++++,;;;;;",
";;;;;)+@ @@++%$$$$$$$$$$%@.++++++++++.@%$$$$$$$$$$%+++++++);;;;;",
";;;;-++.#@+++%$$&$$$$$%. +.@@%%&&&%*@.++ %$$$$$$&$%+++++.  -;;;;",
";;;;!.++#.+++%$$$$$$&#+.@%$$@%$$.%$$$&%.++@&$$$$$$%++..@.+#';;;;",
";;;- .@@.++++%$$$$$% +@&$#&$.@$$.@$$$.%$%.+.%$$$$$%++ .+.@.+-;;;",
";;;++++@+++++%$$$$% .%$$$.@$@ &$@ %$$.@$$$@+ %$$$$%+++++@++.!;;;",
";;-+ @# +++++%$$$% .&$$$$@.$%.&&@.&$$#.$$$$%  %$$$%+++++.@@ +-;;",
";;)+@+@++++++%$$% .&$$$$$@.&% $.++ .*#.&$$$$%  %$$%++++++@+++);;",
";,++  @++++++%$&..&$$$$$$%.$$+&@#+. ++ @%%%&$% .&$%++++++..@.+,;",
";-+ .. ++++++%$@+%$$$$$&@@ $$.%$&+%$% +++++@$%.+@$%++++++#@ ++-;",
";) @.@++ ++++%%+#$$$$$$@  +&$.*$& @. ++@&%*&$@#..%%+++++  .+. );",
";    @++++++@$. &$$$$$$.&@+.%.#@.++.*&+%$$$$$@ @+.&.++++++# @  ;",
"~+..  +++++@$%+@$$$$$$$@$$#++++ . .@%% *$$$$$%.%.+%&.+++++ *.++,",
"-.@.*+++++@$$@+%%$$$$$$.%$@@%@.* ++++++ ..@%&& $@+@$%.+++++.+ .-",
"> @.@++++@$$$..*$$$$$*.++...$%..@@.%%@.. +++%$ &&+.$$% ++++@@..>",
")+ . +++@$$$&+@@$$$&#+@*@...%$ #.@.$$$@ .+.@&$.%$. &$$% ++++ .#)",
"!++++++@$$$$%+.%$$&..%$$$$%.+@.&@ +@%.+ @%$$$$@*$#+%$$$% ++.@..)",
"!+ +++@$$$$$%+@%$%..&$$$$%.%.%.&$&+++.@.$$$$$$@@$@+%$$$$% +++++)",
"..@@ @$$&$$$%+%  +.&$$&%  %$%*.$&.+++%%.&@&$@%%.&@+*$$$$&%  #.+ ",
" .@@ .&$$$$$*+&@@%$$$%.+@&$$.+@@ ...+@& $ %$..%.$@+*$$$$$$@.@@ +",
" +..++.&$$$$%+&@$$$$@+@&$$$$&%. %$@@%+% &.@$@.& $@+*$$$$$@+.@@ )",
")++++++.&$$$%+%@$$$@ *$$$$$$%..%$$@@@ &.&@@$% & $@+%$$$$@+++  +)",
")+++++++.&$$%+*@$$@ %$$$$$$% .&$$%*@@@$.&@@$$.@.$#+%$$$@+++++++)",
">+.@@ +++.&$$ @@#. %$@%$$$% @&$$&@@*@#$.&@.$$@#.&. &$$@++++++++>",
"-+.++ ++++.&$@.&@@@$%+.$$% @$$$$$..%@.$@&.+%$%@@%+.$$@++++ @+.+-",
"~+ ...+++++.&%+%$%@$$%%$* @$$$$%@+@@*.@@#@.+. @%@+%$@+++++..@.+~",
",+++ @++ +++.&..&%@$$$&@ *$$$&@  @..&%++ =.@.@&% .&@++++ +.#@. ;",
";) ... ++++++%@+%% @@# .%$$$%..%$$@%%*@@&% @$$% +%%+++++++++ +);",
";-++@..++++++%$..&@ + #%$$$&.@&$$$%.+++ @&@.%#++@$%++++++.@@#+-;",
";,+ .+ ++++++%$% @$$%&@&$$&.#$$$$%..@*.+++ +++.%$$%+++++++ . +,;",
";;)+.#@ +++++%$$@+@$$$@&$&@+&$$$&..&$$%++.#.+@.%$$%+++++..  +);;",
";;-+.+ .+++++%$$$@+@&$%.@. #$$$&..&$$$$@+@%$@# %$$%+++++.#@.+-;;",
";;;!++.@.++++%$$$$@+.%$%.@%@$$&..&$$$$$%%@ ..@&$$$%++++ .. +);;;",
";;;-+..+.++++%$$$$$%  @&$$$@@@..&$$$$$$.%... %$$$$%++++@+ .+-;;;",
";;;;!+++#.+++%$$&$$$&@+ #&$&#.@&&$%@@$@+ +%$$$$$&$%+++ .#.+);;;;",
";;;;-+ @.. ++%$$$$$$$$%@ +.@*%%%@.+.  +@@%$$$$$$$$%++.#@+.+-;;;;",
";;;;;>+..+. +%$$$$$$$$$$&@. ++++.#%&@.@$$$$$$$$$$$%+ @+. +>;;;;;",
";;;;;,)  .#.+%$$$$$$$$$$$$$$&%%&$$$$$$$$$$$$$$$$$$%++ @.++,;;;;;",
";;;;;;-+ #+@+ ...........&$$$$$$$$$$$$$@.......... +++  +~;;;;;;",
";;;;;;;-+ ..++ ++++++++++.&$$$$$$$$$$$@+++++++++++++++++-;;;;;;;",
";;;;;;;;>++++ @+++++++++++.&$$$$$$$$$@++++++++++ @+ +++>;;;;;;;;",
";;;;;;;;;>++.@+..++++++++++.&$$$$$$$@++++++++++ +... +>;;;;;;;;;",
";;;;;;;;;;>+. .@  .+++++ +++.&$$&$$@++++ ++++.+@ +# +>;;;;;;;;;;",
";;;;;;;;;;;-++.@ . ++++++++++.&$$$@++++++++.@.+..#++-;;;;;;;;;;;",
";;;;;;;;;;;;-+++.@++ .+ ++++++.&$@++++++ +@  #+. +)~;;;;;;;;;;;;",
";;;;;;;;;;;;;,>+ .. .@+@+.  +++.@++++.+.. . +@ ++>,;;;;;;;;;;;;;",
";;;;;;;;;;;;;;;-)++. # @ @+@ ...+..#+@ # . @+++)-;;;;;;;;;;;;;;;",
";;;;;;;;;;;;;;;;;-)+ ....@+@..+ +....@+@.. ++!-;;;;;;;;;;;;;;;;;",
";;;;;;;;;;;;;;;;;;;-)+++.. # @  + @. . ++++)-;;;;;;;;;;;;;;;;;;;",
";;;;;;;;;;;;;;;;;;;;;,-)+++++  ++  ++++ )-,;;;;;;;;;;;;;;;;;;;;;",
";;;;;;;;;;;;;;;;;;;;;;;;,~->))) .)))>-~;;;;;;;;;;;;;;;;;;;;;;;;;",
};