/* XPM */
static char *image_xpm[] = {
/* width height ncolors chars_per_pixel */
"128 128 25 1",
"  c #ffcc00",
". c #ff9900",
"+ c #996600",
"@ c #cc9900",
"# c #333300",
"$ c #663300",
"% c #666600",
"& c #cc6600",
"* c #330000",
"= c #993300",
"- c #cc6633",
"; c #ffcc99",
"> c #ffffff",
", c #cc9966",
"' c #996633",
") c #cccc66",
"! c #ffcc66",
"~ c #cccc99",
"{ c #666633",
"] c #ffffcc",
"^ c #cc9933",
"/ c #ffcc33",
"( c #663333",
"_ c #ff9933",
": c #ffcccc",
">>>>>>>>>>>>>>>>>>>>>>>>>>>>>>>>>>>>>>>>>>>>>>>>>>>>>>];;;!/_/_____//!!;]]>>>>>>>>>>>>>>>>>>>>>>>>>>>>>>>>>>>>>>>>>>>>>>>>>>>>>>",
">>>>>>>>>>>>>>>>>>>>>>>>>>>>>>>>>>>>>>>>>>>>>>>>>:;!__ .          +   @  ../!;]>>>>>>>>>>>>>>>>>>>>>>>>>>>>>>>>>>>>>>>>>>>>>>>>>",
">>>>>>>>>>>>>>>>>>>>>>>>>>>>>>>>>>>>>>>>>>>>>];/_              .. #   $@       .!;]>>>>>>>>>>>>>>>>>>>>>>>>>>>>>>>>>>>>>>>>>>>>>",
">>>>>>>>>>>>>>>>>>>>>>>>>>>>>>>>>>>>>>>>>>]!_.  +         ..   %@ #   $          ../!]>>>>>>>>>>>>>>>>>>>>>>>>>>>>>>>>>>>>>>>>>>",
">>>>>>>>>>>>>>>>>>>>>>>>>>>>>>>>>>>>>>>>;_      $.      @ +&   +@ *   #              ./;>>>>>>>>>>>>>>>>>>>>>>>>>>>>>>>>>>>>>>>>",
">>>>>>>>>>>>>>>>>>>>>>>>>>>>>>>>>>>>>]!_     .@ +&   ++ $.@%   +@ #  .$                ..!]>>>>>>>>>>>>>>>>>>>>>>>>>>>>>>>>>>>>>",
">>>>>>>>>>>>>>>>>>>>>>>>>>>>>>>>>>>]!.       .$ @%   &+ $@@$   +@ #. @$                   .!]>>>>>>>>>>>>>>>>>>>>>>>>>>>>>>>>>>>",
">>>>>>>>>>>>>>>>>>>>>>>>>>>>>>>>>]!.    .     $.@$   @$ &@ #  @%&@$. @$ .       .       .   .!]>>>>>>>>>>>>>>>>>>>>>>>>>>>>>>>>>",
">>>>>>>>>>>>>>>>>>>>>>>>>>>>>>>>!_     @$$@   +& $@  @$+$$$$  +++++  @+     +@                .!>>>>>>>>>>>>>>>>>>>>>>>>>>>>>>>>",
">>>>>>>>>>>>>>>>>>>>>>>>>>>>>>;_      +$@@$.  @% +$@++++.      &@           #.          &$@    . ;>>>>>>>>>>>>>>>>>>>>>>>>>>>>>>",
">>>>>>>>>>>>>>>>>>>>>>>>>>>>]_        ++  ++  +#$+@           .%@          @$    @@    .$@+$     ./]>>>>>>>>>>>>>>>>>>>>>>>>>>>>",
">>>>>>>>>>>>>>>>>>>>>>>>>>>;_         .$. @$..+@              &#$          .#@   @$$+  ++  #@      .!>>>>>>>>>>>>>>>>>>>>>>>>>>>",
">>>>>>>>>>>>>>>>>>>>>>>>>]/            +++$+                 &*#*+          @$$+..$@@++$  .#     @+@ !>>>>>>>>>>>>>>>>>>>>>>>>>>",
">>>>>>>>>>>>>>>>>>>>>>>>]_            .+$&                  &#####+          .@+$$&  .+$+.++   .&.@+  /:>>>>>>>>>>>>>>>>>>>>>>>>",
">>>>>>>>>>>>>>>>>>>>>>>;.           .+@&                   &*#*#*#*+         @++       .@$*@  @#+$+    .;>>>>>>>>>>>>>>>>>>>>>>>",
">>>>>>>>>>>>>>>>>>>>>>! .       .  +#&  .       .       . &#####$###+   .      ..       . @+  %+..$@    @!>>>>>>>>>>>>>>>>>>>>>>",
">>>>>>>>>>>>>>>>>>>>>!            @+$&                   &*#*#*#*#*#*+                      @$$  &$      .!>>>>>>>>>>>>>>>>>>>>>",
">>>>>>>>>>>>>>>>>>>>_         .     ++                  &#############+                      @$+.$.   @    !>>>>>>>>>>>>>>>>>>>>",
">>>>>>>>>>>>>>>>>>>/ +       @$    +$.                 &*#*#*#*#*#*#*#*+                       +#+   @$.    />>>>>>>>>>>>>>>>>>>",
">>>>>>>>>>>>>>>>>>_  %+       $@ @$+                  &#################+                       @   @#@    @./>>>>>>>>>>>>>>>>>>",
">>>>>>>>>>>>>>>>>/   .$+      @$$$@@+                &*#*#*#*#*#*#*#*#*#*+                          $+    @$  !>>>>>>>>>>>>>>>>>",
">>>>>>>>>>>>>>>>! +.  .$+         @+                &#####################+                        +#.   @#@   !>>>>>>>>>>>>>>>>",
">>>>>>>>>>>>>>>!  +$.  .$+                         &*#*#*#*#*#*#*#*#*#*#*#*+                    .$=$++  @#@   @.!>>>>>>>>>>>>>>>",
">>>>>>>>>>>>>>; .  +$@  @$@     .       .       . &#####$#######$#######$###+   .       .       .@@   +@$@   +$.@;>>>>>>>>>>>>>>",
">>>>>>>>>>>>>]      @$@                          &*#*#*#*#*#*#*#*#*#*#*#*#*#*+                        @$@   %$   .]>>>>>>>>>>>>>",
">>>>>>>>>>>>]_       @$@   .....................&#############################+....................... .  .$+     /]>>>>>>>>>>>>",
">>>>>>>>>>>>!    .    $&  +###*###*###*###*###*#*#*#*#*#*#*#$$$$$$$$*#*#*#*#*#*###*###*###*###*###*##+   .$+       !>>>>>>>>>>>>",
">>>>>>>>>>>;   @$#%. .@   +###########################$++@@.         .@+%$###########################+   +&        .!>>>>>>>>>>>",
">>>>>>>>>>]/   $@.+$$&    +#*#*#*#*#*#*#*#*#*#*#*##$+@                    .&=#*#*#*#*#*#*#*#*#*#*#*#*+              _]>>>>>>>>>>",
">>>>>>>>>>/   @$   +$     +#####################$+.                          .@$#####################+               />>>>>>>>>>",
">>>>>>>>>;     +%.@$      +#*#*#*#*#*#*#*#*#*#$@        @@++$$$#####$++@        @$*#*#*#*#*#*#*#*#*#*+           @@  .;>>>>>>>>>",
">>>>>>>>]_      &$$&    . +#####$#######$###$@  .   @+$#$$######$+######$$+.    . @$####$#######$####+  .       &$@   /]>>>>>>>>",
">>>>>>>>) +.     ++       +#*#*#*#*#*#*#*#$&     @$#*#*#*@$#*#*#+.$#*#*#*#*#$@     .+#*#*#*#*#*#*#*#*+        .$+.   ..!>>>>>>>>",
">>>>>>>]/@+..   .$        +##############%.    +###$####$ +#####@ +########+##$@     @$##############+     +@+$&    +$@@]>>>>>>>",
">>>>>>>) .@@$+  +         +#*#*#*#*#*#*#+    &$#*#$.*#*#+  #*#*#@  #*#*#*#$ $#*#$@     +*#*#*#*#*#*#*+     @$+    @#+.  !>>>>>>>",
">>>>>>]     .+$++         +############@   @$#####& &###$  +####$  +######@ +#####$@    +############+          @$$@    .]>>>>>>",
">>>>>>!       @#          +#*#*#*#*#*$@   +#*#*#*#@ @#*#*. @*#*#$  @*#*#*#@ @#*#*#*#&    @##*#*#*#*#*+         .#&       !>>>>>>",
">>>>>]        &+          +#########$.   $########+  $###@  $####.  +#####+  $#######+.   @$#########+          +@    .+@.]>>>>>",
">>>>>!   @@. ..           +#*#*#*#*$.  .$#*#*#*#*#$  +*#*+ @+#*#*. +$#*#*#+  +*#*#*#*#$.   @$#*#*#*#*+           +  &#+   !>>>>>",
">>>>>_  .$+$+$@ .       . +#####$##.  @#$#######$##  .##$+ +###$&. @$###$#$  .##$######$@   @###$####+  .       .+%$%@  . .>>>>>",
">>>>;   +@ .+$            +#*#*#*#@  @$#*#*#*#*#*#*. @$#*$ @*#$      @+$*#$  +$#*#*#*#*#$@   @*#*#*#*+           .$@      .;>>>>",
">>>>/   $   +&            +######&  .$#############@ +###$ @##@         @++  %###########$.   +######+            @+       />>>>",
">>>]    .   $.            +#*#*#+   $#*#*#*#*#*#*#*+ +*#*#  *#@.             @$#*#*#*#*#*#$.   %*#*#*+             @   ..  .]>>>",
">>>;       @$             +####$   +###############+ +####. $####+  .+@        .@&++$$$####$.  .$####+             +@@%$+   !>>>",
">>>_       @@             +#*##@  @#*#*#*#*#*#*#$+$$ @*#*#@ $#*#*$  $#*#$+@            +*#*#&   @#*#*+            +@#$@     />>>",
">>]    @&@.+              +###+   ##############. .% @####& +####$  %####%@           .####+@@   +###+            @@.       .]>>",
">>;   $%+$#+              +#*#   +*#*#*#*#*#*#*@   .  ##*#+ +#*#*#. +#$+.      @+++++@%#*#$ .$   .$#*+            @@     &  .;>>",
">>!  @% . %@    .       . +##+  .#######$#####$ .+.   $#$#% @###$#@ @@  .     $#$#######$#$  ++ . +##+  .       .   .+  .+@  !>>",
">>.  @@   $              &*#$   $#*#*#*#*#*#*#@.$#$.  @$*#$ @#*$$+      @+$#  $#*#*#*#*#*##. @$@   $*%               $   %@  ^>>",
">]       @+             &###&  @##############@+###%   .@&@  @.       @$####  +############&  $+   @##+              +@ +$   .]>",
">;       .@            &*#*#   %*#*#*#*#*#*#*#@%*#*#+               @#*#*#*#. +#*#*#*#*#*#*+  +#@  .$#*+             @$$+.    ;>",
">)  @+&..             &####+  .###############@+####$  .       @++@  @@@&+++@ @############% ++#+   +###+            .$       !>",
">_@+@$=%#%           &*#*#*@  +#$#*#*#*#*#*#*#&.##*## .#$++@ +#$@             ..@&+%##*#*#*$ @*##.  @#*#*+            @       />",
">.@@+@  @$          +#*#*#$   $$$#*#*#*#*#*#*#& @+*##. $*#*+ &$.                     @++$#*# .*#*@   $*#*#+           +.  .@+@^>",
"] @@+@  @+         &######+  @#+############+.    .+$@ %###% @+  @@. @++&@@@            @###..###%   +#####+          +$$#$++@.]",
"!   +$++#@      . +#*#*###@  ++%##*#*#*###+.    .    . %##*$ @+ &#*@ +*###*#+  +..      &#*#@ $###   @*###*#+   .     @@.     .:",
";    @++@        &########   $.##########@    @@@@   @ +#### @+ .+#+ +#######  ++.    .@####+ %###@  .#######+                 ;",
"~               +#*#*#*#*$  @+@#*#*#*#*$@  .+#*#*#$@@$ +$$*#..$.   . @*#*#*#$       +$*#*#*#+ +#*#+   $#*#*#*#+         .@@++$.!",
"!              &#########$  @@+#######$.  +#########$$ + .+#@ #$@    .$###$&     @+#########$ @###%   %########+       #$$++@@ !",
"_             +#*#*#*#*#*+  & $#*#*#*+   %*#*#*#*#*#*+@@   $@ *##$@    ++@     @$#*#*#*#*#*#$ @#*#$   +#*#*#*#*#+              !",
"/    .       &###########+  $ %#####+   $###########+ ++  .#& #####%        .@ +#############..####   &##########+             /",
"_  @ & .    &#*#*#*#*#*#*+  $.+#*#$&   $*#*#*#*#*#$@ .$#$@$#+ *#*#*#      @%*+ &*#*#*#*#*#*#*@ #*#*.  +#*#*#*#*#*#+            /",
"/  .%%++   &#############@  $& @+@.  @$#########%@  .$###$$#+ ####+.      %##% @###+#####@###@ $###.  @############+   @ @. .  _",
". @++@++@.@#*#*###*#*#*##@  $$  .   @#*###*#*#+@.  @$#*##. ++.*##@      . +#*$ @##+ $#*#& @#*+ %##*@  @###*#*#*###*#+  .&+@+   _",
"/  @%@++   %#############@  $#$@ @@$########+.   @+#####&   +@#%.   . @   @##$ @##. +###+  +#+ +###@  @##############@.@++++@. ^",
"_  ++%$+@  .%#*#*#*#*#*#*@  $#*&$#*#*#*#*#$@   .+#*#*#*#+  .%++   @$+ +@  @+$# .*#@ +#*#$  .$$ &*#*@  @#*#*#*#*#*#*#+  @$.@+.  /",
"/   @@+      %###########@  $#$+#########$   @+##########$@$$@  .%##$ @#$+. +#. ##+ @####. @$$ @###@  @############+   +++%+@  /",
"_   @ .      .%#*#*#*#*#*@  $#@$*#*#*#*#+   +#*#*#*#*#*#*##$.  @$#*## @#*$  &#@ $#$ @#*#*@ +*# .*#*@  @#*#*#*#*#*#+     @&+ .  /",
"!              %#########+  %#@########$  .$##############+   +######..##@  $#@ $##  ####+ @##.@###   @##########+      @ @.   /",
"!              .%#*#*#*#*+  +#@#*#*#*#$  .$#*#*#*#*#*#*##&  .$*#*#*#*@@#$ @ *#+ $#*. $*#*$  $#@ *#$   +#*#*#*#*#+              !",
"!               .%#######%  &#.######%  @###############&  @$#####+##@.#+@+@##+ $##@ $####@ @#@ ##$   +########+               !",
";       ..      ..%#*#*##$  @#.$##*#+  @##*#*#*###*#*#$@. @#*#*###@#*@@#&+@+*#+ ##*@ %*###+  #+ ##+   $###*#*#+ .       .      ;",
":      .@'.        %######.  #+.+$%@  @###$$#########$@  @#######$@##@@#@+@+##+ $##@ +#####. $+ ##+   #######+                 ;",
"]    '(('+@        .%#*#*#@  $$.     .$#*#@ +#*#*#*#$@  +#*#*#*#*#@#*.@#@$ +*#+ *#$  +*#*#*+ %+ *#.  @*#*#*#+                 _]",
">   @@              .%####+  +#$@   @+###%   +######@  +##########.#+ %# $.+##+.##%  .$####$ $% #$   +#####+          .    .  _>",
">/  &.    @          .%#*#$  @*#*#$#@$*#*$  .$*#*#$@  +#*#*#*#*#*# @ .*$.#.@*#+@*#@@  @$*#*+ $$@*+   $*#*#+          +(%  +@  ^>",
">!  .@.@@+{            %###@  $####$.#####$@+####$@  +###########+   $#+@#@ +#%$#& $@  .&+@  #$+#.  @####+           & &+(+   !>",
">;   .@@  @            .%#*+  +#*#*+@#*#*#*#*#*#$.  +#*#*#*#*##+.   +#$.+#+  @++. @$$.      +#$%+   +#*#+           @+@@@     ;>",
">]        .@             %##.  $###+@##########+   $#########%@   @ .+@ $#$.      $+@$.    @####.  @###+            @++(%++  .:>",
">>      .@++    .       ..$#+  +##*+ $*###*##%@ ..$#*#*###*$@   .$*@   @##*%    .$*@ @$+&@+#*##&.  +*#+ .       .       .+@  _>>",
">>/  @+&@.(.              +#$. .$##+ @$###$+.   @$########+   @$####@ .$####$+++###+  .$######&   @##+                   .   !>>",
">>~   +  '@ .             +#*+  @#*$.  .@      +*#*#*#*#*&   +*#*#*##$##$+@@+@+#*#*#@ .=*#*#$@    $#*+                   @   ;>>",
">>]     &+  +             +###.  %##+        @+#########+  @$#########$@       @$###$  +###+     $###+             +%%{$(&  .]>>",
">>>/   .$@@&+             +#*#+  .$#*$@    @$+$#*#*#*#*$  @#*#*#*#*#*+           +$#*@ .$&     .$#*#*+             .+.@ @.   >>>",
">>>~   '+.                +####@  @#####$$###@########$. @##########+    @@@.       ..        @######+               @+     ;>>>",
">>>]         +            +#*#*$.  +*#*#*#*#*@*#*#*#*#@ @#*#*#*#*#*+   +*#*#$               @+*#*#*#*+            @   @@@  _]>>>",
">>>>/      @((@           +#####$   +########.#######@  $#########$  @$######@            .+@+#######+           @+    +.  />>>>",
">>>>~   .&('@ . .       . +#*#*##+   +*###*#*.$###*#@   $#*#*#*##$  @#*###*#*+  . @$=%$+. ++  @###*#*+  .       .^@+@  ..  ;>>>>",
">>>>>   @'.  .'@          +#######+   +######@.$##$@  +.########$. @##########@   @$####+ @@  .######+              @+@   _>>>>>",
">>>>>!   @   . +          +#*#*#*#*+   @$#*#*$  .    @$@*#*#*#*$.  $*#*#*#*#*#$@  @@+#*##@ $@ %#*#*#*+          @+%((++   !>>>>>",
">>>>>].       @(@         +#########+   .$####$.    +#$@######$@  $#############$+$@ +%$+. ##$#######+         @'+.      _]>>>>>",
">>>>>>!     @+{@&         +#*#*#*#*#*+    +#*#*#+++#*#$@*#*#*$   $*#*#*#*#*#*#$@*#*@       $*#*#*#*#*+         . .&@ @   !>>>>>>",
">>>>>>]   @+(@  '@        +###########$@   @$##########.$###+   $#############+.###. .    @##########+        &    .%@  /]>>>>>>",
">>>>>>>!   +    ..        +#*#*#*#*#*#*#@    @$#*#*#*#*@.@@   .$*#*#*#*#*#*#*#@ @+@  #+@.@$#*#*#*#*#*+       .(+    @   !>>>>>>>",
">>>>>>>].  .     @%       +##############$.    @$######$.    @$########%@####$      @################+       . +$@     _]>>>>>>>",
">>>>>>>>,       +{@@    . +#*#*###*#*#*###$+    .@+#*#*##+@@+#*###*#$+@ .$*#+   .   $#*###*#*#*###*#*+  .       .=+@   !>>>>>>>>",
">>>>>>>>>/   .@(+. +@     +#################$+.    .@+$###########$&     .@.  .$@ .$#################+      ++@   +   _>>>>>>>>>",
">>>>>>>>>;   @(@ $@@.     +#*#*#*#*#*#*#*#*#*#$+.      .@&++++++@.     +.     +#*#*#*#*#*#*#*#*#*#*#*+     '@@(+      ;>>>>>>>>>",
">>>>>>>>>>!   + ..   @    +######################$@.                @+##+    +#######################+    '   .{.    />>>>>>>>>>",
">>>>>>>>>>]    +@.  .{+   +#*#*#*#*#*#*#*#*#*#*#*#*#$+@.        @@+$*#*#*$++$#*#*#*#*#*#*#*#*#*#*#*#*+   @+%.  @@   .]>>>>>>>>>>",
">>>>>>>>>>>~   .@   {+.@  +##############################$$$$$$######################################+     @{@ @    ;>>>>>>>>>>>",
">>>>>>>>>>>>!     @(&  '  +#*#*#*#*#*#*#*#*#*#*#*#*#*#*#*#*#*#*#*#*#*#*#*#*#*#*#*#*#*#*#*#*#*#*#*#*#*+      @(+@   !>>>>>>>>>>>>",
">>>>>>>>>>>>>/   @(@   {  @@@@@@@@@@@@@@@@@@@@@@@%#############################+@@@@@@@@@@@@@@@@@@@@@.       .+   _]>>>>>>>>>>>>",
">>>>>>>>>>>>>:  . +.  +'.       .       .       ..%#*#*###*#*#*###*#*#*###*#*#+ .       .       .       .    .  ._]>>>>>>>>>>>>>",
">>>>>>>>>>>>>>;    @+({.                           %#########################+                                   ;>>>>>>>>>>>>>>",
">>>>>>>>>>>>>>>!    ..      @                      .%#*#*#*#*#*#*#*#*#*#*#*#+                                   !>>>>>>>>>>>>>>>",
">>>>>>>>>>>>>>>>!           {+.                     .%#####################+                      '            !>>>>>>>>>>>>>>>>",
">>>>>>>>>>>>>>>>>!         '+                        .%#*#*#*#*#*#*#*#*#*#+                      @(@   @      !>>>>>>>>>>>>>>>>>",
">>>>>>>>>>>>>>>>>>!       &$  .+@.                     %#################+                        .(@  +.    />>>>>>>>>>>>>>>>>>",
">>>>>>>>>>>>>>>>>>>/    .+(   '@.+                     .%#*#*#*#*#*#*#*#+                     +.   .$. '    />>>>>>>>>>>>>>>>>>>",
">>>>>>>>>>>>>>>>>>>>!    +@  .++ ' ..                    %#############+                      +$@   @$^    !>>>>>>>>>>>>>>>>>>>>",
">>>>>>>>>>>>>>>>>>>>>!  . . +@ (.. .$@  .       .       ..%#*#*###*#*#+ .       .       . @@  @@#&  .@  . !>>>>>>>>>>>>>>>>>>>>>",
">>>>>>>>>>>>>>>>>>>>>>!     +. +@  ++                      %#########+                  @+@+  @&@++@     !>>>>>>>>>>>>>>>>>>>>>>",
">>>>>>>>>>>>>>>>>>>>>>>;    .@@{. @(                       .%#*#*#*#+                  '@(    @@ .+    /;>>>>>>>>>>>>>>>>>>>>>>>",
">>>>>>>>>>>>>>>>>>>>>>>>]/    .   '@      +                 .%#####+                && & @+    +@     _]>>>>>>>>>>>>>>>>>>>>>>>>",
">>>>>>>>>>>>>>>>>>>>>>>>>>/     .+$      &(   @.             .%#*#+              . .++   .$.  .+     !]>>>>>>>>>>>>>>>>>>>>>>>>>",
">>>>>>>>>>>>>>>>>>>>>>>>>>>;     @+@.@  -.(   +$               %#+            @+@(. .$.   @+.      _;>>>>>>>>>>>>>>>>>>>>>>>>>>>",
">>>>>>>>>>>>>>>>>>>>>>>>>>>>]!     @{. -@@$   @(  @$@ @.       .@        @+@  +  .@  +@   @'@     !]>>>>>>>>>>>>>>>>>>>>>>>>>>>>",
">>>>>>>>>>>>>>>>>>>>>>>>>>>>>>;/     .+@ .{   @( .++  @(@ .+@@@   .+&&+.  +@ @+   @. @$   .     _;>>>>>>>>>>>>>>>>>>>>>>>>>>>>>>",
">>>>>>>>>>>>>>>>>>>>>>>>>>>>>>>>;      ..@$  @ {@&+@  @+. (. @+ .  &. @$. @+ .$ .@(.  (@.     _!]>>>>>>>>>>>>>>>>>>>>>>>>>>>>>>>",
">>>>>>>>>>>>>>>>>>>>>>>>>>>>>>>>>]!      .+. ' {' {.  +@ @=   @    &+  +& @+  %@  +@ .      /!]>>>>>>>>>>>>>>>>>>>>>>>>>>>>>>>>>",
">>>>>>>>>>>>>>>>>>>>>>>>>>>>>>>>>>>]!.      @+@+. $   {. @+        @+  ++ .$  @$+@@       _!]>>>>>>>>>>>>>>>>>>>>>>>>>>>>>>>>>>>",
">>>>>>>>>>>>>>>>>>>>>>>>>>>>>>>>>>>>>]!/        .++.  (  @$   .    @+  {@  (@           _!]>>>>>>>>>>>>>>>>>>>>>>>>>>>>>>>>>>>>>",
">>>>>>>>>>>>>>>>>>>>>>>>>>>>>>>>>>>>>>>>;/           @'@  '&.@     @$@@@  @@.       ./!;>>>>>>>>>>>>>>>>>>>>>>>>>>>>>>>>>>>>>>>>",
">>>>>>>>>>>>>>>>>>>>>>>>>>>>>>>>>>>>>>>>>>];/              @@.     @@.             /;]>>>>>>>>>>>>>>>>>>>>>>>>>>>>>>>>>>>>>>>>>>",
">>>>>>>>>>>>>>>>>>>>>>>>>>>>>>>>>>>>>>>>>>>>>];,/                             /_!;:>>>>>>>>>>>>>>>>>>>>>>>>>>>>>>>>>>>>>>>>>>>>>",
">>>>>>>>>>>>>>>>>>>>>>>>>>>>>>>>>>>>>>>>>>>>>>>>>];!//.                  /_/!;:>>>>>>>>>>>>>>>>>>>>>>>>>>>>>>>>>>>>>>>>>>>>>>>>>",
">>>>>>>>>>>>>>>>>>>>>>>>>>>>>>>>>>>>>>>>>>>>>>>>>>>>>>]:!;!!//_/.///!!!;!]>>>>>>>>>>>>>>>>>>>>>>>>>>>>>>>>>>>>>>>>>>>>>>>>>>>>>>",
};